<svg version="1.1" id="Layer_1" width="200" xmlns="http://www.w3.org/2000/svg" xmlns:xlink="http://www.w3.org/1999/xlink" x="0px" y="0px" viewBox="0 0 163.7 108.1" xml:space="preserve" enable-background="new 0 0 163.7 108.1">
  <style type="text/css">

  .st0{fill:none;stroke:#C12526;stroke-miterlimit:10;}

  </style>
  <path class="st0" d="M1.7 47C-3.7 25.8 9.8 6 31.4 1.2c2-0.4 4.2-0.7 6.3-0.7 28.8 0 57.6 0 86.5 0 0.9 0 1.7 0.2 2.6 0.2L53.5 74.3c-0.9 1-2.2 2-3.5 2.1C28.1 78.4 7.9 71.8 1.7 47z"/>
  <path class="st0" d="M132.2 106.9c-2 0.4-4.2 0.7-6.3 0.7 -28.8 0-57.6 0-86.5 0 -0.9 0-1.7-0.2-2.6-0.2l73.2-73.6c0.9-1 2.2-2 3.5-2.1 22-2 42.2 4.6 48.4 29.4C167.3 82.3 153.9 102.2 132.2 106.9z"/>
</svg>
